<?xml version="1.0"?>
<svg xmlns="http://www.w3.org/2000/svg" id="Capa_1" enable-background="new 0 0 512 512" height="512px" viewBox="0 0 512 512" width="512px"><g><g><g><path d="m245 301h-44.992v-49.996c0-16.571-13.433-30.004-30.004-30.004-16.571 0-30.004 13.433-30.004 30.004v28.067c0 15.461-9.929 28.905-24.707 33.452l-25.293 7.783v155.694c0 .397-.02.789-.03 1.183 8.847 8.847 20.846 13.817 33.357 13.817h121.673c24.853 0 45-20.147 45-45v-100c0-24.853-20.147-45-45-45z" data-original="#000000" class="active-path" data-old_color="#000000" fill="#3FC90E"/><path d="m45 491h-30c-8.284 0-15-6.716-15-15v-160c0-8.284 6.716-15 15-15h30c8.284 0 15 6.716 15 15v160c0 8.284-6.716 15-15 15z" data-original="#000000" class="active-path" data-old_color="#000000" fill="#3FC90E"/></g><g><path d="m267 211h44.992v49.996c0 16.571 13.433 30.004 30.004 30.004 16.571 0 30.004-13.433 30.004-30.004v-28.067c0-15.461 9.929-28.905 24.707-33.452l25.293-7.783v-155.694c0-.397.02-.789.03-1.183-8.847-8.847-20.846-13.817-33.357-13.817h-121.673c-24.853 0-45 20.147-45 45v100c0 24.853 20.147 45 45 45z" data-original="#000000" class="active-path" data-old_color="#000000" fill="#C90E0E"/><path d="m467 21h30c8.284 0 15 6.716 15 15v160c0 8.284-6.716 15-15 15h-30c-8.284 0-15-6.716-15-15v-160c0-8.284 6.716-15 15-15z" data-original="#000000" class="active-path" data-old_color="#000000" fill="#C90E0E"/></g></g></g> </svg>
 